<svg id="wave" style="transform:rotate(180deg); transition: 0.3s" viewBox="0 0 1440 220" version="1.1" xmlns="http://www.w3.org/2000/svg"><defs><linearGradient id="sw-gradient-0" x1="0" x2="0" y1="1" y2="0"><stop stop-color="rgba(0, 174, 239, 1)" offset="0%"></stop><stop stop-color="rgba(136, 223, 255, 1)" offset="100%"></stop></linearGradient></defs><path style="transform:translate(0, 0px); opacity:1" fill="url(#sw-gradient-0)" d="M0,44L80,62.3C160,81,320,117,480,110C640,103,800,51,960,33C1120,15,1280,29,1440,33C1600,37,1760,29,1920,44C2080,59,2240,95,2400,121C2560,147,2720,161,2880,157.7C3040,154,3200,132,3360,132C3520,132,3680,154,3840,165C4000,176,4160,176,4320,154C4480,132,4640,88,4800,66C4960,44,5120,44,5280,69.7C5440,95,5600,147,5760,168.7C5920,191,6080,183,6240,161.3C6400,139,6560,103,6720,102.7C6880,103,7040,139,7200,128.3C7360,117,7520,59,7680,40.3C7840,22,8000,44,8160,55C8320,66,8480,66,8640,62.3C8800,59,8960,51,9120,58.7C9280,66,9440,88,9600,113.7C9760,139,9920,169,10080,157.7C10240,147,10400,95,10560,62.3C10720,29,10880,15,11040,18.3C11200,22,11360,44,11440,55L11520,66L11520,220L11440,220C11360,220,11200,220,11040,220C10880,220,10720,220,10560,220C10400,220,10240,220,10080,220C9920,220,9760,220,9600,220C9440,220,9280,220,9120,220C8960,220,8800,220,8640,220C8480,220,8320,220,8160,220C8000,220,7840,220,7680,220C7520,220,7360,220,7200,220C7040,220,6880,220,6720,220C6560,220,6400,220,6240,220C6080,220,5920,220,5760,220C5600,220,5440,220,5280,220C5120,220,4960,220,4800,220C4640,220,4480,220,4320,220C4160,220,4000,220,3840,220C3680,220,3520,220,3360,220C3200,220,3040,220,2880,220C2720,220,2560,220,2400,220C2240,220,2080,220,1920,220C1760,220,1600,220,1440,220C1280,220,1120,220,960,220C800,220,640,220,480,220C320,220,160,220,80,220L0,220Z"></path></svg>