<?xml version="1.0" standalone="no"?>
<svg xmlns:xlink="http://www.w3.org/1999/xlink" id="wave" style="transform:rotate(270deg); transition: 0.3s" viewBox="0 0 490 1440" version="1.1" xmlns="http://www.w3.org/2000/svg"><defs><linearGradient id="sw-gradient-0" x1="0" x2="0" y1="1" y2="0"><stop stop-color="rgba(0, 174, 239, 1)" offset="0%"/><stop stop-color="rgba(136, 223, 255, 1)" offset="100%"/></linearGradient></defs><path style="transform:translate(0, 0px); opacity:1" fill="url(#sw-gradient-0)" d="M0,147L80,155.2C160,163,320,180,480,187.8C640,196,800,196,960,163.3C1120,131,1280,65,1440,65.3C1600,65,1760,131,1920,163.3C2080,196,2240,196,2400,179.7C2560,163,2720,131,2880,114.3C3040,98,3200,98,3360,81.7C3520,65,3680,33,3840,16.3C4000,0,4160,0,4320,24.5C4480,49,4640,98,4800,106.2C4960,114,5120,82,5280,122.5C5440,163,5600,278,5760,277.7C5920,278,6080,163,6240,122.5C6400,82,6560,114,6720,155.2C6880,196,7040,245,7200,285.8C7360,327,7520,359,7680,318.5C7840,278,8000,163,8160,155.2C8320,147,8480,245,8640,277.7C8800,310,8960,278,9120,236.8C9280,196,9440,147,9600,130.7C9760,114,9920,131,10080,163.3C10240,196,10400,245,10560,236.8C10720,229,10880,163,11040,147C11200,131,11360,163,11440,179.7L11520,196L11520,490L11440,490C11360,490,11200,490,11040,490C10880,490,10720,490,10560,490C10400,490,10240,490,10080,490C9920,490,9760,490,9600,490C9440,490,9280,490,9120,490C8960,490,8800,490,8640,490C8480,490,8320,490,8160,490C8000,490,7840,490,7680,490C7520,490,7360,490,7200,490C7040,490,6880,490,6720,490C6560,490,6400,490,6240,490C6080,490,5920,490,5760,490C5600,490,5440,490,5280,490C5120,490,4960,490,4800,490C4640,490,4480,490,4320,490C4160,490,4000,490,3840,490C3680,490,3520,490,3360,490C3200,490,3040,490,2880,490C2720,490,2560,490,2400,490C2240,490,2080,490,1920,490C1760,490,1600,490,1440,490C1280,490,1120,490,960,490C800,490,640,490,480,490C320,490,160,490,80,490L0,490Z"/></svg>